<svg width="220" height="50" viewBox="0 0 118 19" fill="none" xmlns="http://www.w3.org/2000/svg">
<path d="M4.78445 3.2H0.144453V0.999999H12.0245V3.2H7.38445V15H4.78445V3.2ZM17.442 15.14C16.362 15.14 15.3886 14.9067 14.522 14.44C13.6553 13.9733 12.9753 13.3267 12.482 12.5C12.002 11.66 11.762 10.7133 11.762 9.66C11.762 8.60667 12.002 7.66667 12.482 6.84C12.9753 6.01333 13.6553 5.36667 14.522 4.9C15.3886 4.43333 16.362 4.2 17.442 4.2C18.5353 4.2 19.5153 4.43333 20.382 4.9C21.2486 5.36667 21.922 6.01333 22.402 6.84C22.8953 7.66667 23.142 8.60667 23.142 9.66C23.142 10.7133 22.8953 11.66 22.402 12.5C21.922 13.3267 21.2486 13.9733 20.382 14.44C19.5153 14.9067 18.5353 15.14 17.442 15.14ZM17.442 13C18.362 13 19.122 12.6933 19.722 12.08C20.322 11.4667 20.622 10.66 20.622 9.66C20.622 8.66 20.322 7.85333 19.722 7.24C19.122 6.62667 18.362 6.32 17.442 6.32C16.522 6.32 15.762 6.62667 15.162 7.24C14.5753 7.85333 14.282 8.66 14.282 9.66C14.282 10.66 14.5753 11.4667 15.162 12.08C15.762 12.6933 16.522 13 17.442 13ZM29.8926 10.42L28.0326 12.18V15H25.5326V0.159999H28.0326V9.12L33.2126 4.32H36.2126L31.7526 8.8L36.6326 15H33.5926L29.8926 10.42ZM47.8382 9.72C47.8382 9.89333 47.8249 10.14 47.7982 10.46H39.4182C39.5649 11.2467 39.9449 11.8733 40.5582 12.34C41.1849 12.7933 41.9582 13.02 42.8782 13.02C44.0515 13.02 45.0182 12.6333 45.7782 11.86L47.1182 13.4C46.6382 13.9733 46.0315 14.4067 45.2982 14.7C44.5649 14.9933 43.7382 15.14 42.8182 15.14C41.6449 15.14 40.6115 14.9067 39.7182 14.44C38.8249 13.9733 38.1315 13.3267 37.6382 12.5C37.1582 11.66 36.9182 10.7133 36.9182 9.66C36.9182 8.62 37.1515 7.68667 37.6182 6.86C38.0982 6.02 38.7582 5.36667 39.5982 4.9C40.4382 4.43333 41.3849 4.2 42.4382 4.2C43.4782 4.2 44.4049 4.43333 45.2182 4.9C46.0449 5.35333 46.6849 6 47.1382 6.84C47.6049 7.66667 47.8382 8.62667 47.8382 9.72ZM42.4382 6.2C41.6382 6.2 40.9582 6.44 40.3982 6.92C39.8515 7.38667 39.5182 8.01333 39.3982 8.8H45.4582C45.3515 8.02667 45.0249 7.4 44.4782 6.92C43.9315 6.44 43.2515 6.2 42.4382 6.2ZM56.2996 4.2C57.6463 4.2 58.7263 4.59333 59.5396 5.38C60.3529 6.16667 60.7596 7.33333 60.7596 8.88V15H58.2596V9.2C58.2596 8.26667 58.0396 7.56667 57.5996 7.1C57.1596 6.62 56.5329 6.38 55.7196 6.38C54.7996 6.38 54.0729 6.66 53.5396 7.22C53.0063 7.76667 52.7396 8.56 52.7396 9.6V15H50.2396V4.32H52.6196V5.7C53.0329 5.20667 53.5529 4.83333 54.1796 4.58C54.8063 4.32667 55.5129 4.2 56.2996 4.2ZM69.851 4.2C70.891 4.2 71.8177 4.42667 72.631 4.88C73.4577 5.33333 74.1043 5.97333 74.571 6.8C75.0377 7.62667 75.271 8.58 75.271 9.66C75.271 10.74 75.0377 11.7 74.571 12.54C74.1043 13.3667 73.4577 14.0067 72.631 14.46C71.8177 14.9133 70.891 15.14 69.851 15.14C68.411 15.14 67.271 14.66 66.431 13.7V18.88H63.931V4.32H66.311V5.72C66.7243 5.21333 67.231 4.83333 67.831 4.58C68.4443 4.32667 69.1177 4.2 69.851 4.2ZM69.571 13C70.491 13 71.2443 12.6933 71.831 12.08C72.431 11.4667 72.731 10.66 72.731 9.66C72.731 8.66 72.431 7.85333 71.831 7.24C71.2443 6.62667 70.491 6.32 69.571 6.32C68.971 6.32 68.431 6.46 67.951 6.74C67.471 7.00667 67.091 7.39333 66.811 7.9C66.531 8.40667 66.391 8.99333 66.391 9.66C66.391 10.3267 66.531 10.9133 66.811 11.42C67.091 11.9267 67.471 12.32 67.951 12.6C68.431 12.8667 68.971 13 69.571 13ZM77.642 0.159999H80.142V15H77.642V0.159999ZM87.5032 4.2C89.0765 4.2 90.2765 4.58 91.1032 5.34C91.9432 6.08667 92.3632 7.22 92.3632 8.74V15H90.0032V13.7C89.6965 14.1667 89.2565 14.5267 88.6832 14.78C88.1232 15.02 87.4432 15.14 86.6432 15.14C85.8432 15.14 85.1432 15.0067 84.5432 14.74C83.9432 14.46 83.4765 14.08 83.1432 13.6C82.8232 13.1067 82.6632 12.5533 82.6632 11.94C82.6632 10.98 83.0165 10.2133 83.7232 9.64C84.4432 9.05333 85.5699 8.76 87.1032 8.76H89.8632V8.6C89.8632 7.85333 89.6365 7.28 89.1832 6.88C88.7432 6.48 88.0832 6.28 87.2032 6.28C86.6032 6.28 86.0099 6.37333 85.4232 6.56C84.8499 6.74667 84.3632 7.00667 83.9632 7.34L82.9832 5.52C83.5432 5.09333 84.2165 4.76667 85.0032 4.54C85.7899 4.31333 86.6232 4.2 87.5032 4.2ZM87.1632 13.32C87.7899 13.32 88.3432 13.18 88.8232 12.9C89.3165 12.6067 89.6632 12.1933 89.8632 11.66V10.42H87.2832C85.8432 10.42 85.1232 10.8933 85.1232 11.84C85.1232 12.2933 85.3032 12.6533 85.6632 12.92C86.0232 13.1867 86.5232 13.32 87.1632 13.32ZM100.569 15.14C99.4626 15.14 98.4693 14.9067 97.5893 14.44C96.7093 13.9733 96.0226 13.3267 95.5293 12.5C95.036 11.66 94.7893 10.7133 94.7893 9.66C94.7893 8.60667 95.036 7.66667 95.5293 6.84C96.0226 6.01333 96.7026 5.36667 97.5693 4.9C98.4493 4.43333 99.4493 4.2 100.569 4.2C101.623 4.2 102.543 4.41333 103.329 4.84C104.129 5.26667 104.729 5.88 105.129 6.68L103.209 7.8C102.903 7.30667 102.516 6.94 102.049 6.7C101.596 6.44667 101.096 6.32 100.549 6.32C99.616 6.32 98.8426 6.62667 98.2293 7.24C97.616 7.84 97.3093 8.64667 97.3093 9.66C97.3093 10.6733 97.6093 11.4867 98.2093 12.1C98.8226 12.7 99.6026 13 100.549 13C101.096 13 101.596 12.88 102.049 12.64C102.516 12.3867 102.903 12.0133 103.209 11.52L105.129 12.64C104.716 13.44 104.109 14.06 103.309 14.5C102.523 14.9267 101.609 15.14 100.569 15.14ZM117.174 9.72C117.174 9.89333 117.161 10.14 117.134 10.46H108.754C108.901 11.2467 109.281 11.8733 109.894 12.34C110.521 12.7933 111.294 13.02 112.214 13.02C113.387 13.02 114.354 12.6333 115.114 11.86L116.454 13.4C115.974 13.9733 115.367 14.4067 114.634 14.7C113.901 14.9933 113.074 15.14 112.154 15.14C110.981 15.14 109.947 14.9067 109.054 14.44C108.161 13.9733 107.467 13.3267 106.974 12.5C106.494 11.66 106.254 10.7133 106.254 9.66C106.254 8.62 106.487 7.68667 106.954 6.86C107.434 6.02 108.094 5.36667 108.934 4.9C109.774 4.43333 110.721 4.2 111.774 4.2C112.814 4.2 113.741 4.43333 114.554 4.9C115.381 5.35333 116.021 6 116.474 6.84C116.941 7.66667 117.174 8.62667 117.174 9.72ZM111.774 6.2C110.974 6.2 110.294 6.44 109.734 6.92C109.187 7.38667 108.854 8.01333 108.734 8.8H114.794C114.687 8.02667 114.361 7.4 113.814 6.92C113.267 6.44 112.587 6.2 111.774 6.2Z" fill="white"/>
</svg>
