<svg width="220" height="50" viewBox="0 0 107 17" fill="none" xmlns="http://www.w3.org/2000/svg">
<path d="M12.6013 2V16H10.4613L2.74125 6.52V16H0.16125V2H2.30125L10.0213 11.48V2H12.6013ZM20.9127 16.14C19.8327 16.14 18.8593 15.9067 17.9927 15.44C17.126 14.9733 16.446 14.3267 15.9527 13.5C15.4727 12.66 15.2327 11.7133 15.2327 10.66C15.2327 9.60667 15.4727 8.66667 15.9527 7.84C16.446 7.01333 17.126 6.36667 17.9927 5.9C18.8593 5.43333 19.8327 5.2 20.9127 5.2C22.006 5.2 22.986 5.43333 23.8527 5.9C24.7193 6.36667 25.3927 7.01333 25.8727 7.84C26.366 8.66667 26.6127 9.60667 26.6127 10.66C26.6127 11.7133 26.366 12.66 25.8727 13.5C25.3927 14.3267 24.7193 14.9733 23.8527 15.44C22.986 15.9067 22.006 16.14 20.9127 16.14ZM20.9127 14C21.8327 14 22.5927 13.6933 23.1927 13.08C23.7927 12.4667 24.0927 11.66 24.0927 10.66C24.0927 9.66 23.7927 8.85333 23.1927 8.24C22.5927 7.62667 21.8327 7.32 20.9127 7.32C19.9927 7.32 19.2327 7.62667 18.6327 8.24C18.046 8.85333 17.7527 9.66 17.7527 10.66C17.7527 11.66 18.046 12.4667 18.6327 13.08C19.2327 13.6933 19.9927 14 20.9127 14ZM38.7103 5.32L34.1303 16H31.5503L26.9703 5.32H29.5703L32.8903 13.24L36.3103 5.32H38.7103ZM40.2728 5.32H42.7728V16H40.2728V5.32ZM41.5328 3.56C41.0795 3.56 40.6995 3.42 40.3928 3.14C40.0861 2.84667 39.9328 2.48667 39.9328 2.06C39.9328 1.63333 40.0861 1.28 40.3928 0.999999C40.6995 0.706666 41.0795 0.56 41.5328 0.56C41.9861 0.56 42.3661 0.699999 42.6728 0.979999C42.9795 1.24667 43.1328 1.58667 43.1328 2C43.1328 2.44 42.9795 2.81333 42.6728 3.12C42.3795 3.41333 41.9995 3.56 41.5328 3.56ZM49.3541 16.14C48.4874 16.14 47.6407 16.0267 46.8141 15.8C45.9874 15.5733 45.3274 15.2867 44.8341 14.94L45.7941 13.04C46.2741 13.36 46.8474 13.62 47.5141 13.82C48.1941 14.0067 48.8607 14.1 49.5141 14.1C51.0074 14.1 51.7541 13.7067 51.7541 12.92C51.7541 12.5467 51.5607 12.2867 51.1741 12.14C50.8007 11.9933 50.1941 11.8533 49.3541 11.72C48.4741 11.5867 47.7541 11.4333 47.1941 11.26C46.6474 11.0867 46.1674 10.7867 45.7541 10.36C45.3541 9.92 45.1541 9.31333 45.1541 8.54C45.1541 7.52667 45.5741 6.72 46.4141 6.12C47.2674 5.50667 48.4141 5.2 49.8541 5.2C50.5874 5.2 51.3207 5.28667 52.0541 5.46C52.7874 5.62 53.3874 5.84 53.8541 6.12L52.8941 8.02C51.9874 7.48667 50.9674 7.22 49.8341 7.22C49.1007 7.22 48.5407 7.33333 48.1541 7.56C47.7807 7.77333 47.5941 8.06 47.5941 8.42C47.5941 8.82 47.7941 9.10667 48.1941 9.28C48.6074 9.44 49.2407 9.59333 50.0941 9.74C50.9474 9.87333 51.6474 10.0267 52.1941 10.2C52.7407 10.3733 53.2074 10.6667 53.5941 11.08C53.9941 11.4933 54.1941 12.08 54.1941 12.84C54.1941 13.84 53.7607 14.64 52.8941 15.24C52.0274 15.84 50.8474 16.14 49.3541 16.14ZM61.247 16.14C60.1404 16.14 59.147 15.9067 58.267 15.44C57.387 14.9733 56.7004 14.3267 56.207 13.5C55.7137 12.66 55.467 11.7133 55.467 10.66C55.467 9.60667 55.7137 8.66667 56.207 7.84C56.7004 7.01333 57.3804 6.36667 58.247 5.9C59.127 5.43333 60.127 5.2 61.247 5.2C62.3004 5.2 63.2204 5.41333 64.007 5.84C64.807 6.26667 65.407 6.88 65.807 7.68L63.887 8.8C63.5804 8.30667 63.1937 7.94 62.727 7.7C62.2737 7.44667 61.7737 7.32 61.227 7.32C60.2937 7.32 59.5204 7.62667 58.907 8.24C58.2937 8.84 57.987 9.64667 57.987 10.66C57.987 11.6733 58.287 12.4867 58.887 13.1C59.5004 13.7 60.2804 14 61.227 14C61.7737 14 62.2737 13.88 62.727 13.64C63.1937 13.3867 63.5804 13.0133 63.887 12.52L65.807 13.64C65.3937 14.44 64.787 15.06 63.987 15.5C63.2004 15.9267 62.287 16.14 61.247 16.14ZM67.9681 5.32H70.4681V16H67.9681V5.32ZM69.2281 3.56C68.7748 3.56 68.3948 3.42 68.0881 3.14C67.7815 2.84667 67.6281 2.48667 67.6281 2.06C67.6281 1.63333 67.7815 1.28 68.0881 0.999999C68.3948 0.706666 68.7748 0.56 69.2281 0.56C69.6815 0.56 70.0615 0.699999 70.3681 0.979999C70.6748 1.24667 70.8281 1.58667 70.8281 2C70.8281 2.44 70.6748 2.81333 70.3681 3.12C70.0748 3.41333 69.6948 3.56 69.2281 3.56ZM83.7894 10.72C83.7894 10.8933 83.776 11.14 83.7494 11.46H75.3694C75.516 12.2467 75.896 12.8733 76.5094 13.34C77.136 13.7933 77.9094 14.02 78.8294 14.02C80.0027 14.02 80.9694 13.6333 81.7294 12.86L83.0694 14.4C82.5894 14.9733 81.9827 15.4067 81.2494 15.7C80.516 15.9933 79.6894 16.14 78.7694 16.14C77.596 16.14 76.5627 15.9067 75.6694 15.44C74.776 14.9733 74.0827 14.3267 73.5894 13.5C73.1094 12.66 72.8694 11.7133 72.8694 10.66C72.8694 9.62 73.1027 8.68667 73.5694 7.86C74.0494 7.02 74.7094 6.36667 75.5494 5.9C76.3894 5.43333 77.336 5.2 78.3894 5.2C79.4294 5.2 80.356 5.43333 81.1694 5.9C81.996 6.35333 82.636 7 83.0894 7.84C83.556 8.66667 83.7894 9.62667 83.7894 10.72ZM78.3894 7.2C77.5894 7.2 76.9094 7.44 76.3494 7.92C75.8027 8.38667 75.4694 9.01333 75.3494 9.8H81.4094C81.3027 9.02667 80.976 8.4 80.4294 7.92C79.8827 7.44 79.2027 7.2 78.3894 7.2ZM92.2508 5.2C93.5974 5.2 94.6774 5.59333 95.4908 6.38C96.3041 7.16667 96.7108 8.33333 96.7108 9.88V16H94.2108V10.2C94.2108 9.26667 93.9908 8.56667 93.5508 8.1C93.1108 7.62 92.4841 7.38 91.6708 7.38C90.7508 7.38 90.0241 7.66 89.4908 8.22C88.9574 8.76667 88.6908 9.56 88.6908 10.6V16H86.1908V5.32H88.5708V6.7C88.9841 6.20667 89.5041 5.83333 90.1308 5.58C90.7574 5.32667 91.4641 5.2 92.2508 5.2ZM106.302 15.42C106.009 15.66 105.649 15.84 105.222 15.96C104.809 16.08 104.369 16.14 103.902 16.14C102.729 16.14 101.822 15.8333 101.182 15.22C100.542 14.6067 100.222 13.7133 100.222 12.54V7.4H98.4622V5.4H100.222V2.96H102.722V5.4H105.582V7.4H102.722V12.48C102.722 13 102.849 13.4 103.102 13.68C103.356 13.9467 103.722 14.08 104.202 14.08C104.762 14.08 105.229 13.9333 105.602 13.64L106.302 15.42Z" fill="white"/>
</svg>
