<svg width="220" height="50" viewBox="0 0 200 21" fill="none" xmlns="http://www.w3.org/2000/svg">
<path d="M13.1052 16L13.0852 6.72L8.48524 14.4H7.32523L2.72523 6.84V16H0.245234V2H2.38523L7.94524 11.28L13.4052 2H15.5452L15.5652 16H13.1052ZM29.1468 10.72C29.1468 10.8933 29.1335 11.14 29.1068 11.46H20.7268C20.8735 12.2467 21.2535 12.8733 21.8668 13.34C22.4935 13.7933 23.2668 14.02 24.1868 14.02C25.3601 14.02 26.3268 13.6333 27.0868 12.86L28.4268 14.4C27.9468 14.9733 27.3401 15.4067 26.6068 15.7C25.8735 15.9933 25.0468 16.14 24.1268 16.14C22.9535 16.14 21.9201 15.9067 21.0268 15.44C20.1335 14.9733 19.4401 14.3267 18.9468 13.5C18.4668 12.66 18.2268 11.7133 18.2268 10.66C18.2268 9.62 18.4601 8.68667 18.9268 7.86C19.4068 7.02 20.0668 6.36667 20.9068 5.9C21.7468 5.43333 22.6935 5.2 23.7468 5.2C24.7868 5.2 25.7135 5.43333 26.5268 5.9C27.3535 6.35333 27.9935 7 28.4468 7.84C28.9135 8.66667 29.1468 9.62667 29.1468 10.72ZM23.7468 7.2C22.9468 7.2 22.2668 7.44 21.7068 7.92C21.1601 8.38667 20.8268 9.01333 20.7068 9.8H26.7668C26.6601 9.02667 26.3335 8.4 25.7868 7.92C25.2401 7.44 24.5601 7.2 23.7468 7.2ZM33.9282 6.88C34.6482 5.76 35.9149 5.2 37.7282 5.2V7.58C37.5149 7.54 37.3215 7.52 37.1482 7.52C36.1749 7.52 35.4149 7.80667 34.8682 8.38C34.3215 8.94 34.0482 9.75333 34.0482 10.82V16H31.5482V5.32H33.9282V6.88ZM50.3513 5.32V14.38C50.3513 18.14 48.4313 20.02 44.5913 20.02C43.5647 20.02 42.5913 19.8867 41.6713 19.62C40.7513 19.3667 39.9913 18.9933 39.3913 18.5L40.5113 16.62C40.978 17.0067 41.5647 17.3133 42.2713 17.54C42.9913 17.78 43.718 17.9 44.4513 17.9C45.6247 17.9 46.4847 17.6333 47.0313 17.1C47.578 16.5667 47.8513 15.7533 47.8513 14.66V14.1C47.4247 14.5667 46.9047 14.92 46.2913 15.16C45.678 15.4 45.0047 15.52 44.2713 15.52C43.258 15.52 42.338 15.3067 41.5113 14.88C40.698 14.44 40.0513 13.8267 39.5713 13.04C39.1047 12.2533 38.8713 11.3533 38.8713 10.34C38.8713 9.32667 39.1047 8.43333 39.5713 7.66C40.0513 6.87333 40.698 6.26667 41.5113 5.84C42.338 5.41333 43.258 5.2 44.2713 5.2C45.0447 5.2 45.7447 5.32667 46.3713 5.58C47.0113 5.83333 47.5447 6.22 47.9713 6.74V5.32H50.3513ZM44.6513 13.4C45.598 13.4 46.3713 13.12 46.9713 12.56C47.5847 11.9867 47.8913 11.2467 47.8913 10.34C47.8913 9.44667 47.5847 8.72 46.9713 8.16C46.3713 7.6 45.598 7.32 44.6513 7.32C43.6913 7.32 42.9047 7.6 42.2913 8.16C41.6913 8.72 41.3913 9.44667 41.3913 10.34C41.3913 11.2467 41.6913 11.9867 42.2913 12.56C42.9047 13.12 43.6913 13.4 44.6513 13.4ZM63.678 10.72C63.678 10.8933 63.6647 11.14 63.638 11.46H55.258C55.4047 12.2467 55.7847 12.8733 56.398 13.34C57.0247 13.7933 57.798 14.02 58.718 14.02C59.8914 14.02 60.858 13.6333 61.618 12.86L62.958 14.4C62.478 14.9733 61.8714 15.4067 61.138 15.7C60.4047 15.9933 59.578 16.14 58.658 16.14C57.4847 16.14 56.4514 15.9067 55.558 15.44C54.6647 14.9733 53.9714 14.3267 53.478 13.5C52.998 12.66 52.758 11.7133 52.758 10.66C52.758 9.62 52.9914 8.68667 53.458 7.86C53.938 7.02 54.598 6.36667 55.438 5.9C56.278 5.43333 57.2247 5.2 58.278 5.2C59.318 5.2 60.2447 5.43333 61.058 5.9C61.8847 6.35333 62.5247 7 62.978 7.84C63.4447 8.66667 63.678 9.62667 63.678 10.72ZM58.278 7.2C57.478 7.2 56.798 7.44 56.238 7.92C55.6914 8.38667 55.358 9.01333 55.238 9.8H61.298C61.1914 9.02667 60.8647 8.4 60.318 7.92C59.7714 7.44 59.0914 7.2 58.278 7.2ZM71.8468 2H77.9668C79.4601 2 80.7868 2.29333 81.9468 2.88C83.1068 3.45333 84.0068 4.27333 84.6468 5.34C85.2868 6.39333 85.6068 7.61333 85.6068 9C85.6068 10.3867 85.2868 11.6133 84.6468 12.68C84.0068 13.7333 83.1068 14.5533 81.9468 15.14C80.7868 15.7133 79.4601 16 77.9668 16H71.8468V2ZM77.8468 13.8C78.8735 13.8 79.7735 13.6067 80.5468 13.22C81.3335 12.82 81.9335 12.26 82.3468 11.54C82.7735 10.8067 82.9868 9.96 82.9868 9C82.9868 8.04 82.7735 7.2 82.3468 6.48C81.9335 5.74667 81.3335 5.18667 80.5468 4.8C79.7735 4.4 78.8735 4.2 77.8468 4.2H74.4468V13.8H77.8468ZM92.2102 5.2C93.7836 5.2 94.9836 5.58 95.8102 6.34C96.6502 7.08667 97.0702 8.22 97.0702 9.74V16H94.7102V14.7C94.4036 15.1667 93.9636 15.5267 93.3902 15.78C92.8302 16.02 92.1502 16.14 91.3502 16.14C90.5502 16.14 89.8502 16.0067 89.2502 15.74C88.6502 15.46 88.1836 15.08 87.8502 14.6C87.5302 14.1067 87.3702 13.5533 87.3702 12.94C87.3702 11.98 87.7236 11.2133 88.4302 10.64C89.1502 10.0533 90.2769 9.76 91.8102 9.76H94.5702V9.6C94.5702 8.85333 94.3436 8.28 93.8902 7.88C93.4502 7.48 92.7902 7.28 91.9102 7.28C91.3102 7.28 90.7169 7.37333 90.1302 7.56C89.5569 7.74667 89.0702 8.00667 88.6702 8.34L87.6902 6.52C88.2502 6.09333 88.9236 5.76667 89.7102 5.54C90.4969 5.31333 91.3302 5.2 92.2102 5.2ZM91.8702 14.32C92.4969 14.32 93.0502 14.18 93.5302 13.9C94.0236 13.6067 94.3702 13.1933 94.5702 12.66V11.42H91.9902C90.5502 11.42 89.8302 11.8933 89.8302 12.84C89.8302 13.2933 90.0102 13.6533 90.3702 13.92C90.7302 14.1867 91.2302 14.32 91.8702 14.32ZM106.699 15.42C106.405 15.66 106.045 15.84 105.619 15.96C105.205 16.08 104.765 16.14 104.299 16.14C103.125 16.14 102.219 15.8333 101.579 15.22C100.939 14.6067 100.619 13.7133 100.619 12.54V7.4H98.8587V5.4H100.619V2.96H103.119V5.4H105.979V7.4H103.119V12.48C103.119 13 103.245 13.4 103.499 13.68C103.752 13.9467 104.119 14.08 104.599 14.08C105.159 14.08 105.625 13.9333 105.999 13.64L106.699 15.42ZM112.835 5.2C114.409 5.2 115.609 5.58 116.435 6.34C117.275 7.08667 117.695 8.22 117.695 9.74V16H115.335V14.7C115.029 15.1667 114.589 15.5267 114.015 15.78C113.455 16.02 112.775 16.14 111.975 16.14C111.175 16.14 110.475 16.0067 109.875 15.74C109.275 15.46 108.809 15.08 108.475 14.6C108.155 14.1067 107.995 13.5533 107.995 12.94C107.995 11.98 108.349 11.2133 109.055 10.64C109.775 10.0533 110.902 9.76 112.435 9.76H115.195V9.6C115.195 8.85333 114.969 8.28 114.515 7.88C114.075 7.48 113.415 7.28 112.535 7.28C111.935 7.28 111.342 7.37333 110.755 7.56C110.182 7.74667 109.695 8.00667 109.295 8.34L108.315 6.52C108.875 6.09333 109.549 5.76667 110.335 5.54C111.122 5.31333 111.955 5.2 112.835 5.2ZM112.495 14.32C113.122 14.32 113.675 14.18 114.155 13.9C114.649 13.6067 114.995 13.1933 115.195 12.66V11.42H112.615C111.175 11.42 110.455 11.8933 110.455 12.84C110.455 13.2933 110.635 13.6533 110.995 13.92C111.355 14.1867 111.855 14.32 112.495 14.32ZM135.831 16L132.971 11.9C132.851 11.9133 132.671 11.92 132.431 11.92H129.271V16H126.671V2H132.431C133.644 2 134.698 2.2 135.591 2.6C136.498 3 137.191 3.57333 137.671 4.32C138.151 5.06667 138.391 5.95333 138.391 6.98C138.391 8.03333 138.131 8.94 137.611 9.7C137.104 10.46 136.371 11.0267 135.411 11.4L138.631 16H135.831ZM135.771 6.98C135.771 6.08667 135.478 5.4 134.891 4.92C134.304 4.44 133.444 4.2 132.311 4.2H129.271V9.78H132.311C133.444 9.78 134.304 9.54 134.891 9.06C135.478 8.56667 135.771 7.87333 135.771 6.98ZM151.1 10.72C151.1 10.8933 151.087 11.14 151.06 11.46H142.68C142.827 12.2467 143.207 12.8733 143.82 13.34C144.447 13.7933 145.22 14.02 146.14 14.02C147.313 14.02 148.28 13.6333 149.04 12.86L150.38 14.4C149.9 14.9733 149.293 15.4067 148.56 15.7C147.827 15.9933 147 16.14 146.08 16.14C144.907 16.14 143.873 15.9067 142.98 15.44C142.087 14.9733 141.393 14.3267 140.9 13.5C140.42 12.66 140.18 11.7133 140.18 10.66C140.18 9.62 140.413 8.68667 140.88 7.86C141.36 7.02 142.02 6.36667 142.86 5.9C143.7 5.43333 144.647 5.2 145.7 5.2C146.74 5.2 147.667 5.43333 148.48 5.9C149.307 6.35333 149.947 7 150.4 7.84C150.867 8.66667 151.1 9.62667 151.1 10.72ZM145.7 7.2C144.9 7.2 144.22 7.44 143.66 7.92C143.113 8.38667 142.78 9.01333 142.66 9.8H148.72C148.613 9.02667 148.287 8.4 147.74 7.92C147.193 7.44 146.513 7.2 145.7 7.2ZM163.306 5.32L158.726 16H156.146L151.566 5.32H154.166L157.486 13.24L160.906 5.32H163.306ZM164.869 5.32H167.369V16H164.869V5.32ZM166.129 3.56C165.675 3.56 165.295 3.42 164.989 3.14C164.682 2.84667 164.529 2.48667 164.529 2.06C164.529 1.63333 164.682 1.28 164.989 0.999999C165.295 0.706666 165.675 0.56 166.129 0.56C166.582 0.56 166.962 0.699999 167.269 0.979999C167.575 1.24667 167.729 1.58667 167.729 2C167.729 2.44 167.575 2.81333 167.269 3.12C166.975 3.41333 166.595 3.56 166.129 3.56ZM180.69 10.72C180.69 10.8933 180.676 11.14 180.65 11.46H172.27C172.416 12.2467 172.796 12.8733 173.41 13.34C174.036 13.7933 174.81 14.02 175.73 14.02C176.903 14.02 177.87 13.6333 178.63 12.86L179.97 14.4C179.49 14.9733 178.883 15.4067 178.15 15.7C177.416 15.9933 176.59 16.14 175.67 16.14C174.496 16.14 173.463 15.9067 172.57 15.44C171.676 14.9733 170.983 14.3267 170.49 13.5C170.01 12.66 169.77 11.7133 169.77 10.66C169.77 9.62 170.003 8.68667 170.47 7.86C170.95 7.02 171.61 6.36667 172.45 5.9C173.29 5.43333 174.236 5.2 175.29 5.2C176.33 5.2 177.256 5.43333 178.07 5.9C178.896 6.35333 179.536 7 179.99 7.84C180.456 8.66667 180.69 9.62667 180.69 10.72ZM175.29 7.2C174.49 7.2 173.81 7.44 173.25 7.92C172.703 8.38667 172.37 9.01333 172.25 9.8H178.31C178.203 9.02667 177.876 8.4 177.33 7.92C176.783 7.44 176.103 7.2 175.29 7.2ZM199.556 5.32L195.616 16H193.216L190.456 8.64L187.656 16H185.256L181.336 5.32H183.696L186.516 13.2L189.456 5.32H191.556L194.436 13.24L197.336 5.32H199.556Z" fill="white"/>
</svg>
