<svg width="220" height="50" viewBox="0 0 147 16" fill="none" xmlns="http://www.w3.org/2000/svg">
<path d="M2.73391 3.18V7.44H9.49391V9.64H2.73391V15H0.133906V0.999999H10.3539V3.18H2.73391ZM22.6753 4.32V15H20.2953V13.64C19.8953 14.12 19.3953 14.4933 18.7953 14.76C18.1953 15.0133 17.5486 15.14 16.8553 15.14C15.4286 15.14 14.302 14.7467 13.4753 13.96C12.662 13.16 12.2553 11.98 12.2553 10.42V4.32H14.7553V10.08C14.7553 11.04 14.9686 11.76 15.3953 12.24C15.8353 12.7067 16.4553 12.94 17.2553 12.94C18.1486 12.94 18.8553 12.6667 19.3753 12.12C19.9086 11.56 20.1753 10.76 20.1753 9.72V4.32H22.6753ZM32.0086 4.2C33.3553 4.2 34.4353 4.59333 35.2486 5.38C36.0619 6.16667 36.4686 7.33333 36.4686 8.88V15H33.9686V9.2C33.9686 8.26667 33.7486 7.56667 33.3086 7.1C32.8686 6.62 32.2419 6.38 31.4286 6.38C30.5086 6.38 29.7819 6.66 29.2486 7.22C28.7153 7.76667 28.4486 8.56 28.4486 9.6V15H25.9486V4.32H28.3286V5.7C28.7419 5.20667 29.2619 4.83333 29.8886 4.58C30.5153 4.32667 31.2219 4.2 32.0086 4.2ZM50.1977 0.159999V15H47.7977V13.62C47.3843 14.1267 46.871 14.5067 46.2577 14.76C45.6577 15.0133 44.991 15.14 44.2577 15.14C43.231 15.14 42.3043 14.9133 41.4777 14.46C40.6643 14.0067 40.0243 13.3667 39.5577 12.54C39.091 11.7 38.8577 10.74 38.8577 9.66C38.8577 8.58 39.091 7.62667 39.5577 6.8C40.0243 5.97333 40.6643 5.33333 41.4777 4.88C42.3043 4.42667 43.231 4.2 44.2577 4.2C44.9643 4.2 45.611 4.32 46.1977 4.56C46.7843 4.8 47.2843 5.16 47.6977 5.64V0.159999H50.1977ZM44.5577 13C45.1577 13 45.6977 12.8667 46.1777 12.6C46.6577 12.32 47.0377 11.9267 47.3177 11.42C47.5977 10.9133 47.7377 10.3267 47.7377 9.66C47.7377 8.99333 47.5977 8.40667 47.3177 7.9C47.0377 7.39333 46.6577 7.00667 46.1777 6.74C45.6977 6.46 45.1577 6.32 44.5577 6.32C43.9577 6.32 43.4177 6.46 42.9377 6.74C42.4577 7.00667 42.0777 7.39333 41.7977 7.9C41.5177 8.40667 41.3777 8.99333 41.3777 9.66C41.3777 10.3267 41.5177 10.9133 41.7977 11.42C42.0777 11.9267 42.4577 12.32 42.9377 12.6C43.4177 12.8667 43.9577 13 44.5577 13ZM64.9955 0.999999C66.2088 0.999999 67.2621 1.2 68.1555 1.6C69.0621 2 69.7555 2.57333 70.2355 3.32C70.7155 4.06667 70.9555 4.95333 70.9555 5.98C70.9555 6.99333 70.7155 7.88 70.2355 8.64C69.7555 9.38667 69.0621 9.96 68.1555 10.36C67.2621 10.76 66.2088 10.96 64.9955 10.96H61.8355V15H59.2355V0.999999H64.9955ZM64.8755 8.76C66.0088 8.76 66.8688 8.52 67.4555 8.04C68.0421 7.56 68.3355 6.87333 68.3355 5.98C68.3355 5.08667 68.0421 4.4 67.4555 3.92C66.8688 3.44 66.0088 3.2 64.8755 3.2H61.8355V8.76H64.8755ZM73.5072 0.159999H76.0072V15H73.5072V0.159999ZM83.3684 4.2C84.9418 4.2 86.1418 4.58 86.9684 5.34C87.8084 6.08667 88.2284 7.22 88.2284 8.74V15H85.8684V13.7C85.5618 14.1667 85.1218 14.5267 84.5484 14.78C83.9884 15.02 83.3084 15.14 82.5084 15.14C81.7084 15.14 81.0084 15.0067 80.4084 14.74C79.8084 14.46 79.3418 14.08 79.0084 13.6C78.6884 13.1067 78.5284 12.5533 78.5284 11.94C78.5284 10.98 78.8818 10.2133 79.5884 9.64C80.3084 9.05333 81.4351 8.76 82.9684 8.76H85.7284V8.6C85.7284 7.85333 85.5018 7.28 85.0484 6.88C84.6084 6.48 83.9484 6.28 83.0684 6.28C82.4684 6.28 81.8751 6.37333 81.2884 6.56C80.7151 6.74667 80.2284 7.00667 79.8284 7.34L78.8484 5.52C79.4084 5.09333 80.0818 4.76667 80.8684 4.54C81.6551 4.31333 82.4884 4.2 83.3684 4.2ZM83.0284 13.32C83.6551 13.32 84.2084 13.18 84.6884 12.9C85.1818 12.6067 85.5284 12.1933 85.7284 11.66V10.42H83.1484C81.7084 10.42 80.9884 10.8933 80.9884 11.84C80.9884 12.2933 81.1684 12.6533 81.5284 12.92C81.8884 13.1867 82.3884 13.32 83.0284 13.32ZM97.8569 14.42C97.5635 14.66 97.2035 14.84 96.7769 14.96C96.3635 15.08 95.9235 15.14 95.4569 15.14C94.2835 15.14 93.3769 14.8333 92.7369 14.22C92.0969 13.6067 91.7769 12.7133 91.7769 11.54V6.4H90.0169V4.4H91.7769V1.96H94.2769V4.4H97.1369V6.4H94.2769V11.48C94.2769 12 94.4035 12.4 94.6569 12.68C94.9102 12.9467 95.2769 13.08 95.7569 13.08C96.3169 13.08 96.7835 12.9333 97.1569 12.64L97.8569 14.42ZM104.253 2.04C103.2 2.04 102.673 2.61333 102.673 3.76V4.4H105.613V6.4H102.753V15H100.253V6.4H98.4934V4.4H100.253V3.72C100.253 2.57333 100.587 1.67333 101.253 1.02C101.92 0.353333 102.86 0.0199997 104.073 0.0199997C105.033 0.0199997 105.787 0.213333 106.333 0.599999L105.633 2.48C105.207 2.18667 104.747 2.04 104.253 2.04ZM111.94 15.14C110.86 15.14 109.887 14.9067 109.02 14.44C108.153 13.9733 107.473 13.3267 106.98 12.5C106.5 11.66 106.26 10.7133 106.26 9.66C106.26 8.60667 106.5 7.66667 106.98 6.84C107.473 6.01333 108.153 5.36667 109.02 4.9C109.887 4.43333 110.86 4.2 111.94 4.2C113.033 4.2 114.013 4.43333 114.88 4.9C115.747 5.36667 116.42 6.01333 116.9 6.84C117.393 7.66667 117.64 8.60667 117.64 9.66C117.64 10.7133 117.393 11.66 116.9 12.5C116.42 13.3267 115.747 13.9733 114.88 14.44C114.013 14.9067 113.033 15.14 111.94 15.14ZM111.94 13C112.86 13 113.62 12.6933 114.22 12.08C114.82 11.4667 115.12 10.66 115.12 9.66C115.12 8.66 114.82 7.85333 114.22 7.24C113.62 6.62667 112.86 6.32 111.94 6.32C111.02 6.32 110.26 6.62667 109.66 7.24C109.073 7.85333 108.78 8.66 108.78 9.66C108.78 10.66 109.073 11.4667 109.66 12.08C110.26 12.6933 111.02 13 111.94 13ZM122.411 5.88C123.131 4.76 124.397 4.2 126.211 4.2V6.58C125.997 6.54 125.804 6.52 125.631 6.52C124.657 6.52 123.897 6.80667 123.351 7.38C122.804 7.94 122.531 8.75333 122.531 9.82V15H120.031V4.32H122.411V5.88ZM141.811 4.2C143.158 4.2 144.225 4.59333 145.011 5.38C145.798 6.15333 146.191 7.32 146.191 8.88V15H143.691V9.2C143.691 8.26667 143.485 7.56667 143.071 7.1C142.658 6.62 142.065 6.38 141.291 6.38C140.451 6.38 139.778 6.66 139.271 7.22C138.765 7.76667 138.511 8.55333 138.511 9.58V15H136.011V9.2C136.011 8.26667 135.805 7.56667 135.391 7.1C134.978 6.62 134.385 6.38 133.611 6.38C132.758 6.38 132.078 6.65333 131.571 7.2C131.078 7.74667 130.831 8.54 130.831 9.58V15H128.331V4.32H130.711V5.68C131.111 5.2 131.611 4.83333 132.211 4.58C132.811 4.32667 133.478 4.2 134.211 4.2C135.011 4.2 135.718 4.35333 136.331 4.66C136.958 4.95333 137.451 5.39333 137.811 5.98C138.251 5.42 138.818 4.98667 139.511 4.68C140.205 4.36 140.971 4.2 141.811 4.2Z" fill="white"/>
</svg>
